<svg aria-hidden="true" style="width:0;height:0;position:absolute;overflow:hidden" xmlns="http://www.w3.org/2000/svg"><defs><symbol id="icon-logo" viewBox="0 0 30 32"><path fill="#f8d24e" style="fill:var(--color1,#f8d24e)" d="M15.226 17.082c1.415-3.784-1.515-5.856-3.457-7.217-.371-.278-.743-.538-1.043-.776-.537-.447-.933-1.037-1.141-1.699s-.217-1.37-.029-2.037a.394.394 0 0 0-.308-.491.407.407 0 0 0-.216.016 6.565 6.565 0 0 0-1.801 1.058c-.518.393-.937.898-1.226 1.476s-.44 1.213-.441 1.858c-.366.285-.69.618-.962.992a3.6 3.6 0 0 0-.709 2.324c-.595.538-1.038 1.22-1.286 1.977s-.292 1.566-.129 2.345a1.232 1.232 0 0 0-.106 2.06c.221.164.49.251.767.25h.026v2.152c0 .218.088.428.245.582s.369.241.591.241h.65l1.058 9.04a.83.83 0 0 0 .828.732h4.404c.206 0 .404-.075.557-.21s.251-.321.275-.522l1.058-9.04h.65c.222 0 .434-.087.591-.241s.245-.364.245-.582v-2.152h.026c.336 0 .658-.131.895-.366a1.242 1.242 0 0 0 0-1.773l-.011.004zm-9.531-6.866c.535 1.98 2.599 2.76 4.482 3.455a.41.41 0 0 0 .492-.051.403.403 0 0 0 .074-.483.401.401 0 0 0-.279-.197c-2.027-.758-3.939-1.464-4.084-3.488-.034-.556.072-1.112.308-1.619s.596-.947 1.047-1.284c.282-.232.586-.437.906-.615a4.604 4.604 0 0 0 0 .761c.043.58.204 1.146.473 1.663s.641.976 1.094 1.349c.308.26.691.527 1.114.813.976.692 2.087 1.464 2.792 2.511a3.859 3.859 0 0 1 .404 3.715h-1.641c-3.383 0-7.27-.922-8.039-3.506-.152-.532-.151-1.095.004-1.626s.457-1.009.873-1.379l-.019-.018zM8.74 22.693l1.24 1.222-1.24 1.222-1.24-1.23 1.24-1.215zm2.844 3.21-1.025 1.01-1.24-1.222 1.24-1.219 1.077 1.058-.052.373zM8.74 28.706 7.5 27.484l1.24-1.222 1.24 1.222-1.24 1.222zm-.568-3.008-1.24 1.222L5.9 25.903l-.045-.366 1.077-1.058 1.24 1.219zM6.36 27.484l-.249.245-.063-.556.312.311zm-.13 1.251.702-.692 1.363 1.354a.845.845 0 0 0 .026.081H6.316l-.085-.743zm4.322-.691.702.692-.085.732H9.108l1.444-1.424zm.817-.315-.249-.245.316-.311-.067.556zm.371-3.199-.62-.622.787-.776-.167 1.398zm-1.192-1.178-1.177-1.157h2.354l-1.177 1.157zm-3.62 0-1.177-1.157h2.354l-1.177 1.157zm4.01 7.817h-4.4c-.007-.001-.013-.004-.018-.008s-.008-.011-.008-.017l-.104-.878h4.663l-.1.878c-.001.007-.004.014-.01.018s-.012.007-.02.007h-.004zm3.405-12.751h-1.292a.406.406 0 0 0-.444.397c0 .056.012.111.035.161s.056.096.098.134a.403.403 0 0 0 .311.102h.46v2.152c-.001.007-.004.014-.01.018s-.012.007-.02.007H3.987c-.007 0-.014-.003-.02-.007s-.009-.011-.01-.018v-2.152h7.355a.404.404 0 0 0 .366-.397.393.393 0 0 0-.105-.268.413.413 0 0 0-.261-.129H3.144a.46.46 0 0 1-.501-.452.446.446 0 0 1 .15-.335.454.454 0 0 1 .351-.117h.843a.404.404 0 0 0 .366-.397.393.393 0 0 0-.105-.268.413.413 0 0 0-.261-.129h-.743a3.873 3.873 0 0 1 .81-3.185c.26.798.928 1.889 2.599 2.756 1.571.809 3.65 1.222 6.178 1.222h1.485a.46.46 0 0 1 .501.452.446.446 0 0 1-.15.335.454.454 0 0 1-.351.117h.026z"/><path fill="#f8d24e" style="fill:var(--color1,#f8d24e)" d="m16.964 29.152-.292.449.006.004.287-.453zm3.149.151.535-.012-.014-.62-.611.104.09.528zm.037 1.648.136.518.409-.108-.009-.422-.535.012zm-4.133.079.12-.522-.003-.001-.117.523zm-2.04-.911.347-.408-.001-.001-.346.409zm-.737-1.673.536.003v-.003h-.536zm.256-1.172-.481-.236v.001l.481.236zm1.643-1.402.19.501.002-.001-.192-.5zm5.262-.136.534.042.035-.452-.44-.109-.129.52zm-.131 1.679-.1.526.587.111.046-.596-.534-.042zm-1.428-.687c-.804 0-1.48.086-1.973.303a1.616 1.616 0 0 0-.651.489 1.26 1.26 0 0 0-.255.774h1.071c0-.063.015-.098.038-.127a.554.554 0 0 1 .228-.155c.288-.126.784-.212 1.542-.212v-1.071zm-2.879 1.566c0 .551.247 1.006.709 1.307l.585-.897a.435.435 0 0 1-.222-.409h-1.071zm.715 1.31c.438.277 1.015.381 1.662.381v-1.071c-.559 0-.899-.095-1.089-.215l-.573.905zm1.662.382a11.1 11.1 0 0 0 1.863-.154l-.179-1.056c-.545.092-1.106.139-1.684.139v1.071zm1.238-.671.037 1.648 1.071-.024-.037-1.648-1.071.024zm.435 1.118a7.964 7.964 0 0 1-2.029.244v1.071c.821 0 1.589-.092 2.302-.279l-.273-1.036zm-2.029.244c-.757 0-1.369-.059-1.847-.169l-.24 1.044c.582.134 1.281.197 2.087.197v-1.071zm-1.85-.17c-.511-.114-.88-.236-1.127-.356l-.47.963c.354.173.814.316 1.363.439l.234-1.045zm-1.126-.356a3.258 3.258 0 0 1-.684-.44l-.693.817c.267.227.571.421.907.585l.47-.963zm-.685-.441c-.364-.308-.55-.709-.548-1.262l-1.071-.005c-.004.842.301 1.556.927 2.086l.691-.818zm-.547-1.264c0-.36.071-.669.202-.936l-.962-.471c-.211.43-.311.903-.311 1.407h1.071zm.201-.936c.244-.495.674-.88 1.352-1.137l-.38-1.002c-.884.336-1.549.885-1.933 1.666l.961.473zm1.354-1.138c.713-.274 1.508-.414 2.392-.414v-1.071c-.999 0-1.926.159-2.776.485l.384 1zm2.392-.414c.902 0 1.751.1 2.549.298l.258-1.04a11.605 11.605 0 0 0-2.807-.33v1.071zm2.144-.263-.131 1.679 1.068.083.131-1.679-1.068-.083zm.503 1.194a8.256 8.256 0 0 0-1.528-.161v1.071c.377 0 .818.046 1.328.142l.2-1.052zm5.226.856-.003.536.544.003-.006-.544-.536.006zm-.23-.696-.364.393.005.004.36-.397zm-1.334.052.371.386.004-.004-.375-.383zm-.324.633-.529-.087-.102.619.627.003.003-.536zm3.938 2.856.324.427.193-.146.018-.241-.534-.04zm-1.156.429-.115-.523-.003.001.118.522zm-4.017-.146-.183.504.004.002.178-.505zm-.915-.487-.332.42.003.003.003.003.326-.425zm-.612-.769-.48.237.001.002.479-.24zm.627-3.248.356.4-.356-.4zm4.896-.581.214-.491-.005-.002-.209.493zm1.23 1.13-.482.234.001.003.48-.237zm.209.937.534.039.001-.019v-.019h-.536zm-.063.863-.003.536.501.002.036-.499-.534-.039zm-4.242-.021.003-.536-.699-.003.178.676.518-.137zm.607.748-.264.466.002.001.261-.468zm3.253-.183v-.536h-.107l-.099.041.206.494zm.283 0 .534.04.043-.576h-.577v.536zm-1.615-1.523c-.004-.387-.093-.803-.406-1.087l-.72.794c-.006-.006.006.001.021.047a.87.87 0 0 1 .033.257l1.071-.011zm-.401-1.082c-.281-.261-.65-.347-1.013-.347v1.071c.209 0 .272.05.284.061l.729-.785zm-1.013-.348c-.399 0-.77.125-1.06.409l.75.765c.058-.057.144-.103.31-.103v-1.071zm-1.056.406a1.63 1.63 0 0 0-.482.932l1.057.174a.558.558 0 0 1 .167-.333l-.742-.773zm.044 1.555 1.888.011.006-1.071-1.888-.011-.006 1.071zm3.618 1.893c-.117.089-.404.213-.948.333l.23 1.046c.565-.124 1.049-.286 1.364-.525l-.647-.854zm-.951.334a6.805 6.805 0 0 1-1.498.175v1.071c.566 0 1.145-.068 1.735-.201l-.237-1.045zm-1.498.175c-.505 0-.92-.024-1.252-.068l-.143 1.062c.394.053.86.078 1.395.078v-1.071zm-1.252-.069a4.855 4.855 0 0 1-.971-.236l-.357 1.01c.389.137.784.233 1.184.287l.143-1.062zm-.966-.234a2.862 2.862 0 0 1-.772-.408l-.652.85c.305.234.66.421 1.059.565l.365-1.007zm-.766-.403a1.708 1.708 0 0 1-.465-.588l-.958.479c.189.377.44.697.759.949l.665-.84zm-.464-.586c-.113-.228-.18-.521-.18-.898h-1.071c0 .502.09.966.291 1.372l.96-.475zm-.18-.898c0-.377.068-.71.196-1.006l-.983-.427a3.57 3.57 0 0 0-.285 1.432h1.071zm.196-1.005c.135-.311.3-.541.487-.708l-.712-.8a3.056 3.056 0 0 0-.758 1.081l.983.427zm.488-.708c.576-.513 1.454-.811 2.719-.811v-1.071c-1.42 0-2.592.334-3.432 1.083l.713.8zm2.719-.811c.568 0 1.103.108 1.611.324l.418-.986a5.144 5.144 0 0 0-2.029-.409v1.071zm1.606.321c.474.207.78.5.962.873l.963-.468c-.307-.631-.82-1.091-1.497-1.387l-.428.982zm.963.876c.1.203.154.433.154.699h1.071c0-.417-.086-.811-.265-1.173l-.96.474zm.156.661-.063.863 1.068.078.063-.863-1.068-.078zm.474.366-4.242-.021-.005 1.071 4.242.021.005-1.071zm-4.763.651c.125.475.431.835.861 1.078l.527-.933c-.212-.12-.31-.258-.352-.418l-1.036.273zm.863 1.079c.434.243.978.34 1.585.34v-1.071c-.509 0-.848-.084-1.062-.204l-.523.935zm1.585.34c.651 0 1.367-.176 2.136-.496l-.412-.989c-.689.287-1.26.414-1.724.414v1.071zm1.93-.455h.282v-1.071h-.282v1.071zm-.251-.575-.099 1.329 1.068.08.099-1.329-1.068-.08z"/></symbol><symbol id="icon-arrow1" viewBox="0 0 82 32"><path d="M81.414 17.414a2 2 0 0 0 0-2.828L68.686 1.858a2 2 0 1 0-2.828 2.828L77.172 16 65.858 27.314a2 2 0 1 0 2.828 2.828l12.728-12.728zM0 18h80v-4H0v4z"/></symbol><symbol id="icon-arrow2" viewBox="0 0 102 32"><path d="M101.414 17.414a2 2 0 0 0 0-2.828L88.686 1.858a2 2 0 1 0-2.828 2.828L97.172 16 85.858 27.314a2 2 0 1 0 2.828 2.828l12.728-12.728zM0 18h100v-4H0v4z"/></symbol><symbol id="icon-arrow3" viewBox="0 0 69 32"><path d="M68.081 17.414a2 2 0 0 0 0-2.829L55.353 1.857a2 2 0 1 0-2.828 2.828l11.314 11.314-11.314 11.314a2 2 0 1 0 2.828 2.828l12.728-12.728zM0 18h66.667v-4H0v4z"/></symbol><symbol id="icon-close" viewBox="0 0 32 32"><path d="M23.733 10.304 22.229 8.8l-5.963 5.963L10.303 8.8l-1.504 1.504 5.963 5.963-5.963 5.963 1.504 1.504 5.963-5.963 5.963 5.963 1.504-1.504-5.963-5.963 5.963-5.963z"/></symbol><symbol id="icon-open" viewBox="0 0 32 32"><path d="M6.4 11.733V9.6h19.2v2.133H6.4zm0 5.334h19.2v-2.133H6.4v2.133zm0 5.333h19.2v-2.133H6.4V22.4z"/></symbol><symbol id="icon-pointer" viewBox="0 0 22 32"><path stroke-linejoin="round" stroke-linecap="round" stroke-width="6.4" d="M3.2 3.2 19.04 16 3.2 28.8"/></symbol><symbol id="icon-up" viewBox="0 0 32 32"><path d="m27.414 12.586-10-10a2 2 0 0 0-2.828 0l-10 10a2 2 0 1 0 2.828 2.828L14 8.828V28a2 2 0 1 0 4 0V8.828l6.586 6.586c.39.39.902.586 1.414.586s1.024-.195 1.414-.586a2 2 0 0 0 0-2.828z"/></symbol><symbol id="icon-ice-cream" viewBox="0 0 128 128"><path d="M64.434.427c.32.861.963 5.01.963 6.293v.043a12.29 12.29 0 0 1-3.352 8.454l.006-.006c-1.795 1.927-3.591 2.997-7.901 4.739-4.793 1.956-6.777 3.133-9.024 5.355-2.276 2.276-3.616 4.764-4.096 7.687-.537 3.186 0 5.433 1.632 6.72l.828.64-1.312.832c-2.649 1.742-7.467 5.838-8.299 7.097-1.607 2.411-1.447 4.658.373 5.572l.857.427-.964.91c-1.447 1.365-1.742 2.304-1.529 4.764.135 1.636.082 2.521-.291 3.858-.455 1.742-.455 1.767.132 3.001.59 1.205 2.251 2.731 3.751 3.374.722.32.747.427.91 2.891.082 1.422.213 5.945.32 10.069.082 4.124.27 7.9.427 8.356.135.48.644 1.124 1.102 1.444 1.55 1.074 2.624 2.226 3.317 3.563.779 1.529 1.636 5.276 4.231 18.237l1.821 9.102 1.127 1.074c2.141 2.115 6.24 3.079 12.989 3.079 6.773 0 10.816-.939 12.96-3.054l1.152-1.095 1.657-8.437c3.666-18.45 3.989-19.467 6.855-21.742.882-.725 1.742-1.607 1.899-2.009.189-.455.377-3.965.508-9.266.107-4.711.27-9.373.377-10.365l.16-1.792 1.742-1.316c2.194-1.685 3.051-3.211 3.051-5.568-.025-2.784-1.849-5.838-5.166-8.569l-1.582-1.283.779-1.102c3.239-4.469 1.205-10.656-4.821-14.777l-1.82-1.259.668-.697c2.972-3.186 3.456-12.693.963-19.307-1.497-3.936-4.928-8.22-9.131-11.381C70.648 3.429 64.966.002 64.461.002c-.107 0-.107.189-.025.427zm7.708 9.351c1.422 1.394 3.132 3.293 3.805 4.256 3.989 5.571 5.006 12.562 2.596 17.703-.963 2.087-3.858 5.191-6.535 7.04-4.096 2.841-13.309 7.609-19.733 10.229-10.336 4.206-16.338 5.01-17.031 2.251-.27-1.045.508-1.874 3.804-4.071 2.969-2.034 16.306-11.943 16.544-12.345.082-.107-1.284.508-2.997 1.365-5.81 2.947-8.569 2.382-8.434-1.714.078-2.973 2.222-6.347 5.191-8.274.754-.48 3.083-1.554 5.227-2.411 7.04-2.837 9.184-4.285 11.566-7.843 1.422-2.116 2.972-6.027 3.079-7.687.028-.587.135-1.045.213-1.045.082 0 1.287 1.152 2.702 2.546zm7.311 30.421c1.956 1.095 3.989 2.973 4.871 4.444 1.557 2.649.754 5.301-2.596 8.675-3.641 3.698-9.852 7.232-16.683 9.479-6.293 2.062-12.316 3.026-20.942 3.321l-5.355.189 3.484.213c4.498.295 13.198.028 16.573-.508 8.971-1.422 16.605-4.26 22.066-8.167 1.234-.885 2.517-1.607 2.866-1.607.885 0 4.74 3.698 5.518 5.248.427.885.533 1.529.455 2.382-.402 3.563-4.743 5.465-15.211 6.72-12.8 1.529-29.536.028-36.686-3.264-3.378-1.554-3.936-2.439-3.079-4.793.267-.75.32-1.636.213-2.894-.135-1.66-.107-1.874.48-2.489 1.34-1.447 3.591-2.276 11.84-4.366 2.891-.747 6.827-1.927 8.7-2.624 4.551-1.66 13.095-5.973 17.056-8.622 3.723-2.464 4.26-2.571 6.428-1.337zM43.89 72.974c5.625 1.635 10.606 2.115 19.872 1.927 6.962-.132 11.246-.562 17.429-1.66 1.262-.213 2.357-.402 2.493-.402.295 0 .213 10.283-.107 12.989-.349 2.866-1.127 5.088-1.956 5.625-.857.562-5.141 1.152-10.873 1.472-11.755.64-23.833 0-27.581-1.501-2.034-.829-2.251-1.902-2.276-11.837 0-6.613.053-7.523.402-7.388.213.078 1.39.427 2.596.775zm6.346 22.763c1.927.238 4.018.48 4.658.562l1.156.135-1.02 1.124c-1.312 1.419-3.321 4.256-4.043 5.703-.828 1.66-1.099 1.767-2.329 1.099l-1.045-.59-.587-3.641a93.173 93.173 0 0 0-.864-4.868l.114.662c-.242-.693-.483-.693 3.961-.185zm28.548-.295c0 .053-.135.747-.27 1.529-.16.8-.829 5.166-1.497 9.717-1.365 9.508-2.275 13.977-3.108 15.477-1.152 2.009-3.911 3.186-8.38 3.563-1.742.135-6.99-.213-7.285-.484-.213-.238 4.391-5.945 5.117-6.318.668-.377.853-.32 3.129.853 2.653 1.397 3.993 1.611 3.993.725 0-.882-.697-1.742-2.411-2.915-1.579-1.127-2.141-1.771-2.141-2.521 0-.213.775-1.419 1.714-2.677.935-1.259 2.3-3.267 2.997-4.473l1.316-2.169 1.202.163c2.436.349 3.079.32 3.001-.213-.053-.27-.508-1.045-1.02-1.689-.508-.668-.91-1.341-.91-1.472 0-.508 2.489-5.195 3.296-6.187.697-.857 1.259-1.287 1.259-.91zm-16.736 2.14c1.337.885 6.371 5.252 6.692 5.785.135.242-5.031 8.327-6.051 9.479-.107.135-.669-.132-1.23-.562a80.837 80.837 0 0 0-4.319-3.007l-.339-.207-3.616-2.382 2.169-3.669c3.854-6.453 3.776-6.347 4.605-6.347.427 0 1.365.402 2.091.91zm10.147.964c-.939 1.152-1.714 1.877-2.034 1.877-.697 0-1.824-.615-3.723-2.009l-1.582-1.152 3.165-.189a63.75 63.75 0 0 0 3.918-.258l-.256.02c2.144-.349 2.144-.32.512 1.71zM51.95 111.427c2.464.963 6.642 3.239 7.847 4.26.857.693.857.747.508 1.603a26.398 26.398 0 0 1-1.722 2.962l.061-.097a43.734 43.734 0 0 0-1.669 2.729l-.127.243c-.853 1.66-1.123 1.796-2.891 1.316-1.902-.565-2.916-1.529-3.453-3.271-.725-2.436-1.877-9.316-1.742-10.389.053-.402 1.177-.16 3.186.644z"/></symbol><symbol id="icon-weight" viewBox="0 0 103 128"><path d="M42.489 2.187C26.588 4.544 13.501 13.373 8.683 24.928c-1.536 3.651-1.949 5.895-1.949 10.293.029 3.25.146 4.455.651 6.208 1.031 3.449 1.771 5.205 3.307 7.68l1.422 2.297-1.6 1.956C-2.101 69.06-3.491 91.14 7.029 108.534c3.929 6.528 10.343 12.939 16.605 16.675l1.863 1.091 50.972-.43 1.209-.661c4.228-2.386 10.194-7.705 13.532-12.018 4.834-6.278 8.255-13.888 9.651-22.186l.041-.296c.473-2.962.473-11.733-.028-14.521-1.507-8.594-4.729-15.954-9.81-22.482-.974-1.237-1.742-2.272-1.742-2.357 0-.057.533-.949 1.152-1.956 1.447-2.3 2.748-5.262 3.456-7.847.796-2.877.796-10.062 0-12.939C91.093 18.403 82.584 9.891 70.559 5.204c-3.371-1.323-9.134-2.731-12.857-3.189-3.456-.402-11.996-.32-15.218.171zM60.48 6.873c15.78 3.075 27.335 12.736 29.461 24.64.473 2.674.178 7.218-.619 9.746-.8 2.471-2.275 5.376-4.018 7.847-.711 1.006-1.301 2.158-1.301 2.532s.619 1.351 1.507 2.329c7.385 8.192 11.285 18.457 11.285 29.554-.028 12.622-4.875 23.691-14.212 32.373-1.597 1.493-3.872 3.364-5.085 4.167l-2.215 1.493-48.843.203-1.892-1.209c-6.855-4.451-13.031-11.811-16.459-19.634-4.313-9.888-4.757-21.362-1.241-31.651 1.863-5.347 4.345-9.717 8.124-14.318 1.54-1.842 2.247-2.933 2.247-3.449 0-.434-.768-1.842-1.774-3.307-3.545-5.148-4.992-10.869-4.135-16.274.889-5.461 3.367-9.948 7.947-14.404 5.973-5.778 14.304-9.6 24.085-11.04 4.046-.604 12.999-.373 17.138.402z"/><path d="M43.815 11.932c-12.114 1.984-21.6 8.711-24.701 17.54-.711 1.984-.829 2.759-.829 5.607 0 2.844.117 3.62.828 5.603.441 1.266 1.269 3.022 1.831 3.911 1.536 2.471 2.215 2.56 5.262.718 4.376-2.696 9.472-4.758 14.907-5.898l.311-.054c3.662-.747 10.695-1.031 14.684-.572 6.233.718 12.999 2.958 18.407 6.151 1.536.889 3.104 1.636 3.484 1.636 2.247 0 5.113-6.468 5.113-11.495 0-11.186-10.695-20.761-25.852-23.147-3.221-.515-10.347-.515-13.447 0zm14.628 4.601c5.084 1.091 9.749 3.165 13.269 5.895 4.729 3.651 7.267 8.739 6.852 13.653-.146 1.956-.885 4.601-1.326 4.889-.121.057-1.778-.633-3.666-1.554-3.704-1.814-8.017-3.328-12.525-4.323l-.389-.072c-2.748-.572-3.901-.661-10.044-.633-6.059 0-7.328.089-9.956.633-4.551.978-8.099 2.187-12.473 4.256-4.402 2.098-4.167 2.126-4.963-.462-1.031-3.36-.384-7.819 1.625-11.182 1.067-1.781 3.989-4.743 6.116-6.208 4.05-2.791 7.595-4.053 15.218-5.436 1.565-.284 10.254.117 12.263.547zm-4.814 37.085c-.828 1.038-.828 2.016.029 2.848.562.547 1.123.69 3.164.836 4.137.299 7.933 1.52 11.26 3.459l-.124-.067c2.425 1.437 6.115 4.917 7.772 7.417 2.453 3.591 4.135 8.739 4.135 12.537 0 1.323.121 1.725.74 2.297.946.949 2.187.949 3.104 0 .651-.661.675-.832.501-3.648-.829-13.916-12.736-25.529-26.976-26.311l-2.958-.171-.647.807z"/></symbol><symbol id="icon-cow" viewBox="0 0 128 128"><path d="M24.675.768c-1.049.903-4.032 7.125-5.102 10.524-1.273 4.206-1.707 7.36-1.536 11.719.231 6.222 1.796 10.944 5.241 15.872.899 1.294 1.625 2.404 1.625 2.496 0 .06-.551.121-1.244.121-2.987 0-8.576.992-12.861 2.283C3.996 45.831 0 49.404 0 53.404c0 1.415 1.273 3.819 2.635 5.049 2.635 2.379 8.398 4.633 14.595 5.714 2.144.391 8.515 1.052 9.934 1.081.259 0 .349 1.387.349 5.924 0 3.907.142 6.944.434 8.807 1.042 6.674 4.284 13.735 8.569 18.727l1.479 1.714-.985 1.593c-1.447 2.254-1.998 3.968-2.169 6.521-.437 6.133 3.385 11.573 10.773 15.392 14.069 7.303 35.936 4.448 44.132-5.771 3.996-4.992 4.459-10.702 1.301-15.872l-.985-1.593 1.767-2.133c3.303-3.968 5.444-7.936 7.065-12.957 1.362-4.267 1.885-8.388 1.885-14.912 0-2.972.085-5.44.231-5.44 1.333-.028 7.733-.722 9.76-1.081 6.226-1.081 11.876-3.307 14.596-5.71 1.362-1.234 2.635-3.637 2.635-5.049 0-4.452-4.516-8.057-12.917-10.222-2.749-.722-7.933-1.593-10.453-1.742l-1.188-.093 1.305-1.803c1.621-2.194 3.648-6.464 4.43-9.259 2.201-8.085.839-17.493-3.879-26.482-1.973-3.73-3.335-4.601-4.924-3.132-.608.576-.871 1.355-1.447 4.181-1.796 8.989-5.127 16.11-9.991 21.369l-2.144 2.347H40.98l-1.913-2.073c-4.747-5.23-8.195-12.622-9.991-21.643-.579-2.827-.839-3.605-1.447-4.178-.956-.871-1.884-.843-2.951.089zm3.702 17.828a48.05 48.05 0 0 0 5.703 9.437l1.795 2.315-1.881 1.412c-1.767 1.351-3.417 3.278-4.693 5.476l-.547.989-1.39-1.895c-4.75-6.549-5.938-14.578-3.417-22.905 1.216-4.025 1.188-3.997 2.286-.508.523 1.682 1.508 4.238 2.144 5.682zm75.378-6.344c1.049 2.913 1.655 6.275 1.655 9.778l-.002.371v-.019c0 5.468-1.447 10.098-4.487 14.247l-1.362 1.863-1.013-1.714a18.164 18.164 0 0 0-5.017-5.524l-.053-.036c-.782-.509-1.387-1.02-1.387-1.081 0-.089.547-.782 1.245-1.532 3.214-3.577 6.659-10.009 8.37-15.541.519-1.714 1.042-3.129 1.127-3.129.089 0 .523 1.056.924 2.318zM88.96 34.226c3.214 1.351 6.283 5.227 6.777 8.505.26 1.803.868 2.947 1.65 3.129.349.057 2.752.267 5.33.448 9.148.605 16.359 2.556 19.431 5.23 1.419 1.262 1.273 2.315-.434 3.609-3.417 2.585-10.802 4.537-18.332 4.871-4.981.21-6.023.355-6.692 1.049-.491.512-.547 1.053-.547 6.492 0 7.367-.377 11.605-1.305 15.029-1.301 4.658-3.879 9.621-6.891 13.138l-1.245 1.444-2.578-1.536c-2.749-1.704-5.941-3.04-9.341-3.833l-.216-.043c-10.976-2.617-23.111-1.024-31.275 4.117l-1.885 1.202-1.188-1.412c-1.621-1.895-4.171-5.952-5.184-8.235-2.229-5.173-2.894-9.379-2.894-18.638 0-8.989.462-8.327-6.197-8.686-8.515-.452-15.005-1.984-19.086-4.569-3.011-1.923-2.517-3.637 1.682-5.653 4.025-1.956 9.554-3.125 17.23-3.605 5.966-.391 6.108-.483 6.659-3.367.811-4.359 4.025-7.965 8.082-9.109 1.013-.299 6.688-.359 24.064-.331l22.734.06 1.65.693zM72.683 96.448c7.097 1.742 12.395 4.989 14.684 9.017.551.931.782 1.895.896 3.367.117 1.831.032 2.283-.665 3.787-3.214 6.827-15.029 11.332-27.047 10.311-14.45-1.202-23.95-9.259-20.213-17.163 2.027-4.27 8.889-8.356 16.128-9.561 1.188-.178 2.375-.391 2.606-.451.235-.061 2.841-.061 5.795 0 4.021.093 5.963.27 7.815.693z"/><path d="M43.961 49.283c-1.795.605-3.011 1.387-4.633 3.008-1.422 1.351-1.536 2.944-.349 3.907 1.102.9 2.144.782 3.474-.391 1.682-1.472 2.987-2.073 4.608-2.073 1.621-.032 2.866.541 4.601 2.073 1.333 1.173 2.375 1.291 3.477.391.58-.48.754-.871.754-1.778 0-.928-.203-1.351-1.22-2.371-2.866-2.883-7.122-3.996-10.713-2.766zm33.764-.031c-1.849.693-4.228 2.258-5.18 3.428-.928 1.145-.96 2.435 0 3.399.953 1.02 2.112.96 3.502-.181 3.417-2.827 5.966-2.916 9.124-.302.811.693 1.735 1.234 2.027 1.234 1.419 0 2.578-1.262 2.578-2.766 0-.96-2.403-3.186-4.576-4.238-2.403-1.173-5.269-1.383-7.47-.569zM48.16 104.896c-.839.811-1.131 1.984-.697 2.915.32.75.811 1.052 2.809 1.593.9.238 1.276.54 1.593 1.291.405.996.437.996 2.667 1.085l2.229.089v-.843c-.029-1.202-.697-2.944-1.565-4.146-1.013-1.387-2.781-2.286-4.779-2.468-1.362-.121-1.707-.061-2.258.484zm27.655-.213c-1.447.391-3.531 2.347-4.11 3.876a10.047 10.047 0 0 0-.549 2.707l-.002.031c-.057 1.291.057 1.593.754 2.222 1.707 1.504 3.968.331 3.968-2.073 0-1.173.868-1.984 2.403-2.286 1.621-.299 2.201-.96 2.229-2.493 0-2.016-1.796-2.795-4.693-1.984z"/></symbol><symbol id="icon-facebook" viewBox="0 0 14 32"><path d="M13.513 15.879H9.337v15.393H3.01V15.879H.001v-5.41H3.01V6.968C3.01 4.465 4.192.544 9.394.544l4.687.02v5.251H10.68c-.558 0-1.342.28-1.342 1.475v3.184h4.729l-.553 5.405z"/></symbol><symbol id="icon-telegram" viewBox="0 0 40 32"><path d="m16.205 20.638-.635 8.341c.909 0 1.302-.364 1.774-.802l4.261-3.801 8.829 6.036c1.619.843 2.76.399 3.197-1.391l5.797-25.352c.514-2.235-.866-3.108-2.443-2.56L2.92 13.284c-2.325.842-2.29 2.052-.395 2.601l8.709 2.529L31.463 6.597c.952-.589 1.818-.263 1.106.326L16.205 20.64z"/></symbol><symbol id="icon-github" viewBox="0 0 32 32"><path d="M15.999.847C7.728.847.94 7.636.94 15.909c0 7.06 4.953 13.473 11.529 15.062v-4.983c-.652.143-1.251.147-1.915-.049-.89-.263-1.613-.856-2.15-1.76-.342-.577-.949-1.203-1.581-1.157l-.155-1.758c1.368-.117 2.551.834 3.254 2.014.312.525.671.833 1.132.969.446.131.924.068 1.481-.129.14-1.116.651-1.534 1.037-2.123v-.001c-3.922-.585-5.486-2.667-6.106-4.309-.822-2.181-.381-4.907 1.073-6.629.028-.034.079-.121.059-.183-.667-2.014.146-3.68.176-3.857.769.228.894-.229 3.342 1.258l.423.254c.177.105.121.045.298.032a12.77 12.77 0 0 1 3.16-.445 12.84 12.84 0 0 1 3.204.456l.137.014c-.012-.002.037-.009.12-.058 3.057-1.852 2.947-1.247 3.767-1.513.03.177.831 1.87.172 3.859-.089.274 2.651 2.783 1.132 6.811-.62 1.644-2.183 3.725-6.106 4.31v.001c.503.767 1.107 1.174 1.104 2.756v6.22c6.577-1.589 11.529-8.003 11.529-15.062 0-8.273-6.788-15.062-15.059-15.062z"/></symbol></defs></svg>