<svg aria-hidden="true" style="position: absolute; width: 0; height: 0; overflow: hidden;" version="1.1" xmlns="http://www.w3.org/2000/svg" xmlns:xlink="http://www.w3.org/1999/xlink">
<defs>
<symbol id="icon-logo" viewBox="0 0 30 32">
<path fill="#f8d24e" style="fill: var(--color1, #f8d24e)" d="M15.226 17.082c1.415-3.784-1.515-5.856-3.457-7.217-0.371-0.278-0.743-0.538-1.043-0.776-0.537-0.447-0.933-1.037-1.141-1.699s-0.217-1.37-0.029-2.037c0.019-0.070 0.019-0.144-0.001-0.213s-0.060-0.132-0.114-0.181c-0.054-0.049-0.121-0.083-0.193-0.097s-0.147-0.009-0.216 0.016c-0.654 0.255-1.262 0.612-1.801 1.058-0.518 0.393-0.937 0.898-1.226 1.476s-0.44 1.213-0.441 1.858c-0.366 0.285-0.69 0.618-0.962 0.992-0.499 0.672-0.75 1.492-0.709 2.324-0.595 0.538-1.038 1.22-1.286 1.977s-0.292 1.566-0.129 2.345c-0.237 0.141-0.42 0.355-0.521 0.608s-0.116 0.533-0.041 0.795c0.075 0.262 0.235 0.493 0.456 0.657s0.49 0.251 0.767 0.25h0.026v2.152c0 0.218 0.088 0.428 0.245 0.582s0.369 0.241 0.591 0.241h0.65l1.058 9.040c0.022 0.201 0.119 0.387 0.272 0.523s0.351 0.21 0.556 0.209h4.404c0.206-0 0.404-0.075 0.557-0.21s0.251-0.321 0.275-0.522l1.058-9.040h0.65c0.222 0 0.434-0.087 0.591-0.241s0.245-0.364 0.245-0.582v-2.152h0.026c0.336 0 0.658-0.131 0.895-0.366s0.371-0.551 0.371-0.883c0.002-0.165-0.030-0.329-0.094-0.482s-0.158-0.291-0.277-0.408l-0.011 0.004zM5.695 10.216c0.535 1.98 2.599 2.76 4.482 3.455 0.051 0.031 0.107 0.050 0.166 0.057s0.119 0 0.175-0.018c0.056-0.019 0.108-0.049 0.151-0.090s0.076-0.090 0.098-0.145c0.021-0.055 0.030-0.113 0.026-0.172s-0.021-0.115-0.050-0.166c-0.029-0.051-0.069-0.095-0.117-0.129s-0.104-0.057-0.162-0.068c-2.027-0.758-3.939-1.464-4.084-3.488-0.034-0.556 0.072-1.112 0.308-1.619s0.596-0.947 1.047-1.284c0.282-0.232 0.586-0.437 0.906-0.615-0.021 0.253-0.021 0.508 0 0.761 0.043 0.58 0.204 1.146 0.473 1.663s0.641 0.976 1.094 1.349c0.308 0.26 0.691 0.527 1.114 0.813 0.976 0.692 2.087 1.464 2.792 2.511 0.376 0.537 0.611 1.158 0.681 1.807s-0.024 1.305-0.277 1.908h-1.641c-3.383 0-7.27-0.922-8.039-3.506-0.152-0.532-0.151-1.095 0.004-1.626s0.457-1.009 0.873-1.379l-0.019-0.018zM8.74 22.693l1.24 1.222-1.24 1.222-1.24-1.23 1.24-1.215zM11.584 25.903l-1.025 1.010-1.24-1.222 1.24-1.219 1.077 1.058-0.052 0.373zM8.74 28.706l-1.24-1.222 1.24-1.222 1.24 1.222-1.24 1.222zM8.172 25.698l-1.24 1.222-1.032-1.017-0.045-0.366 1.077-1.058 1.24 1.219zM6.36 27.484l-0.249 0.245-0.063-0.556 0.312 0.311zM6.23 28.735l0.702-0.692 1.363 1.354c0.007 0.027 0.016 0.054 0.026 0.081h-2.005l-0.085-0.743zM10.552 28.044l0.702 0.692-0.085 0.732h-2.061l1.444-1.424zM11.369 27.729l-0.249-0.245 0.316-0.311-0.067 0.556zM11.74 24.53l-0.62-0.622 0.787-0.776-0.167 1.398zM10.548 23.352l-1.177-1.157h2.354l-1.177 1.157zM6.928 23.352l-1.177-1.157h2.354l-1.177 1.157zM10.938 31.169h-4.4c-0.007-0.001-0.013-0.004-0.018-0.008s-0.008-0.011-0.008-0.017l-0.104-0.878h4.663l-0.1 0.878c-0.001 0.007-0.004 0.014-0.010 0.018s-0.012 0.007-0.020 0.007h-0.004zM14.343 18.418h-1.292c-0.056-0.005-0.113 0.001-0.166 0.019s-0.103 0.046-0.145 0.083c-0.042 0.037-0.075 0.083-0.098 0.134s-0.035 0.106-0.035 0.161c0 0.056 0.012 0.111 0.035 0.161s0.056 0.096 0.098 0.134c0.042 0.037 0.091 0.066 0.145 0.083s0.11 0.024 0.166 0.019h0.46v2.152c-0.001 0.007-0.004 0.014-0.010 0.018s-0.012 0.007-0.020 0.007h-9.494c-0.007 0-0.014-0.003-0.020-0.007s-0.009-0.011-0.010-0.018v-2.152h7.355c0.1-0.009 0.193-0.055 0.261-0.129s0.105-0.169 0.105-0.268-0.037-0.195-0.105-0.268c-0.068-0.073-0.161-0.119-0.261-0.129h-8.168c-0.064 0.006-0.128-0.002-0.188-0.022s-0.116-0.053-0.163-0.095c-0.047-0.043-0.085-0.094-0.111-0.152s-0.039-0.12-0.039-0.183c0-0.063 0.013-0.125 0.039-0.183s0.063-0.109 0.111-0.152c0.047-0.043 0.103-0.075 0.163-0.095s0.125-0.028 0.188-0.022h0.843c0.1-0.009 0.193-0.055 0.261-0.129s0.105-0.169 0.105-0.268-0.037-0.195-0.105-0.268c-0.068-0.073-0.161-0.119-0.261-0.129h-0.743c-0.106-0.557-0.089-1.13 0.051-1.68s0.399-1.063 0.759-1.505c0.26 0.798 0.928 1.889 2.599 2.756 1.571 0.809 3.65 1.222 6.178 1.222h1.485c0.064-0.006 0.128 0.002 0.188 0.022s0.116 0.053 0.163 0.095c0.047 0.043 0.085 0.094 0.111 0.152s0.039 0.12 0.039 0.183c0 0.063-0.013 0.125-0.039 0.183s-0.063 0.109-0.111 0.152c-0.047 0.043-0.103 0.075-0.163 0.095s-0.125 0.028-0.188 0.022h0.026z"></path>
<path fill="#f8d24e" style="fill: var(--color1, #f8d24e)" d="M16.964 29.152l-0.292 0.449 0.006 0.004 0.287-0.453zM20.113 29.303l0.535-0.012-0.014-0.62-0.611 0.104 0.090 0.528zM20.15 30.951l0.136 0.518 0.409-0.108-0.009-0.422-0.535 0.012zM16.017 31.030l0.12-0.522-0.003-0.001-0.117 0.523zM13.977 30.119l0.347-0.408-0.001-0.001-0.346 0.409zM13.24 28.446l0.536 0.003v-0.003h-0.536zM13.496 27.274l-0.481-0.236-0 0.001 0.481 0.236zM15.139 25.872l0.19 0.501 0.002-0.001-0.192-0.5zM20.401 25.736l0.534 0.042 0.035-0.452-0.44-0.109-0.129 0.52zM20.27 27.415l-0.1 0.526 0.587 0.111 0.046-0.596-0.534-0.042zM18.842 26.728c-0.804 0-1.48 0.086-1.973 0.303-0.253 0.111-0.483 0.268-0.651 0.489-0.173 0.228-0.255 0.494-0.255 0.774h1.071c0-0.063 0.015-0.098 0.038-0.127 0.028-0.037 0.090-0.095 0.228-0.155 0.288-0.126 0.784-0.212 1.542-0.212v-1.071zM15.963 28.294c0 0.551 0.247 1.006 0.709 1.307l0.585-0.897c-0.159-0.104-0.222-0.221-0.222-0.409h-1.071zM16.678 29.604c0.438 0.277 1.015 0.381 1.662 0.381v-1.071c-0.559 0-0.899-0.095-1.089-0.215l-0.573 0.905zM18.34 29.986c0.636 0 1.257-0.051 1.863-0.154l-0.179-1.056c-0.545 0.092-1.106 0.139-1.684 0.139v1.071zM19.578 29.315l0.037 1.648 1.071-0.024-0.037-1.648-1.071 0.024zM20.013 30.433c-0.612 0.161-1.288 0.244-2.029 0.244v1.071c0.821 0 1.589-0.092 2.302-0.279l-0.273-1.036zM17.984 30.677c-0.757 0-1.369-0.059-1.847-0.169l-0.24 1.044c0.582 0.134 1.281 0.197 2.087 0.197v-1.071zM16.134 30.507c-0.511-0.114-0.88-0.236-1.127-0.356l-0.47 0.963c0.354 0.173 0.814 0.316 1.363 0.439l0.234-1.045zM15.008 30.151c-0.264-0.129-0.491-0.276-0.684-0.44l-0.693 0.817c0.267 0.227 0.571 0.421 0.907 0.585l0.47-0.963zM14.323 29.71c-0.364-0.308-0.55-0.709-0.548-1.262l-1.071-0.005c-0.004 0.842 0.301 1.556 0.927 2.086l0.691-0.818zM13.776 28.446c0-0.36 0.071-0.669 0.202-0.936l-0.962-0.471c-0.211 0.43-0.311 0.903-0.311 1.407h1.071zM13.977 27.51c0.244-0.495 0.674-0.88 1.352-1.137l-0.38-1.002c-0.884 0.336-1.549 0.885-1.933 1.666l0.961 0.473zM15.331 26.372c0.713-0.274 1.508-0.414 2.392-0.414v-1.071c-0.999 0-1.926 0.159-2.776 0.485l0.384 1zM17.723 25.958c0.902 0 1.751 0.1 2.549 0.298l0.258-1.040c-0.889-0.221-1.826-0.33-2.807-0.33v1.071zM19.867 25.695l-0.131 1.679 1.068 0.083 0.131-1.679-1.068-0.083zM20.37 26.889c-0.557-0.106-1.068-0.161-1.528-0.161v1.071c0.377 0 0.818 0.046 1.328 0.142l0.2-1.052zM25.596 27.745l-0.003 0.536 0.544 0.003-0.006-0.544-0.536 0.006zM25.366 27.049l-0.364 0.393 0.005 0.004 0.36-0.397zM24.032 27.101l0.371 0.386 0.004-0.004-0.375-0.383zM23.708 27.734l-0.529-0.087-0.102 0.619 0.627 0.003 0.003-0.536zM27.646 30.59l0.324 0.427 0.193-0.146 0.018-0.241-0.534-0.040zM26.49 31.019l-0.115-0.523-0.003 0.001 0.118 0.522zM22.473 30.873l-0.183 0.504 0.004 0.002 0.178-0.505zM21.558 30.386l-0.332 0.42 0.003 0.003 0.003 0.003 0.326-0.425zM20.946 29.617l-0.48 0.237 0.001 0.002 0.479-0.24zM21.573 26.369l0.356 0.4 0-0-0.356-0.4zM26.469 25.788l0.214-0.491-0.005-0.002-0.209 0.493zM27.699 26.918l-0.482 0.234 0.001 0.003 0.48-0.237zM27.908 27.855l0.534 0.039 0.001-0.019v-0.019h-0.536zM27.845 28.718l-0.003 0.536 0.501 0.002 0.036-0.499-0.534-0.039zM23.603 28.697l0.003-0.536-0.699-0.003 0.178 0.676 0.518-0.137zM24.21 29.445l-0.264 0.466 0.002 0.001 0.261-0.468zM27.463 29.262v-0.536h-0.107l-0.099 0.041 0.206 0.494zM27.746 29.262l0.534 0.040 0.043-0.576h-0.577v0.536zM26.131 27.739c-0.004-0.387-0.093-0.803-0.406-1.087l-0.72 0.794c-0.006-0.006 0.006 0.001 0.021 0.047 0.016 0.049 0.032 0.131 0.033 0.257l1.071-0.011zM25.73 26.657c-0.281-0.261-0.65-0.347-1.013-0.347v1.071c0.209 0 0.272 0.050 0.284 0.061l0.729-0.785zM24.717 26.309c-0.399 0-0.77 0.125-1.060 0.409l0.75 0.765c0.058-0.057 0.144-0.103 0.31-0.103v-1.071zM23.661 26.715c-0.264 0.253-0.423 0.572-0.482 0.932l1.057 0.174c0.024-0.149 0.082-0.252 0.167-0.333l-0.742-0.773zM23.705 28.27l1.888 0.011 0.006-1.071-1.888-0.011-0.006 1.071zM27.323 30.163c-0.117 0.089-0.404 0.213-0.948 0.333l0.23 1.046c0.565-0.124 1.049-0.286 1.364-0.525l-0.647-0.854zM26.372 30.497c-0.519 0.117-1.018 0.175-1.498 0.175v1.071c0.566 0 1.145-0.068 1.735-0.201l-0.237-1.045zM24.874 30.672c-0.505 0-0.92-0.024-1.252-0.068l-0.143 1.062c0.394 0.053 0.86 0.078 1.395 0.078v-1.071zM23.622 30.603c-0.325-0.044-0.649-0.122-0.971-0.236l-0.357 1.010c0.389 0.137 0.784 0.233 1.184 0.287l0.143-1.062zM22.656 30.369c-0.313-0.114-0.568-0.251-0.772-0.408l-0.652 0.85c0.305 0.234 0.66 0.421 1.059 0.565l0.365-1.007zM21.89 29.966c-0.184-0.146-0.34-0.338-0.465-0.588l-0.958 0.479c0.189 0.377 0.44 0.697 0.759 0.949l0.665-0.84zM21.426 29.38c-0.113-0.228-0.18-0.521-0.18-0.898h-1.071c0 0.502 0.090 0.966 0.291 1.372l0.96-0.475zM21.246 28.482c0-0.377 0.068-0.71 0.196-1.006l-0.983-0.427c-0.192 0.443-0.285 0.923-0.285 1.432h1.071zM21.442 27.477c0.135-0.311 0.3-0.541 0.487-0.708l-0.712-0.8c-0.322 0.287-0.572 0.653-0.758 1.081l0.983 0.427zM21.93 26.769c0.576-0.513 1.454-0.811 2.719-0.811v-1.071c-1.42 0-2.592 0.334-3.432 1.083l0.713 0.8zM24.649 25.958c0.568 0 1.103 0.108 1.611 0.324l0.418-0.986c-0.643-0.273-1.321-0.409-2.029-0.409v1.071zM26.255 26.279c0.474 0.207 0.78 0.5 0.962 0.873l0.963-0.468c-0.307-0.631-0.82-1.091-1.497-1.387l-0.428 0.982zM27.218 27.155c0.1 0.203 0.154 0.433 0.154 0.699h1.071c0-0.417-0.086-0.811-0.265-1.173l-0.96 0.474zM27.374 27.816l-0.063 0.863 1.068 0.078 0.063-0.863-1.068-0.078zM27.848 28.182l-4.242-0.021-0.005 1.071 4.242 0.021 0.005-1.071zM23.085 28.833c0.125 0.475 0.431 0.835 0.861 1.078l0.527-0.933c-0.212-0.12-0.31-0.258-0.352-0.418l-1.036 0.273zM23.948 29.912c0.434 0.243 0.978 0.34 1.585 0.34v-1.071c-0.509 0-0.848-0.084-1.062-0.204l-0.523 0.935zM25.533 30.252c0.651 0 1.367-0.176 2.136-0.496l-0.412-0.989c-0.689 0.287-1.26 0.414-1.724 0.414v1.071zM27.463 29.797h0.282v-1.071h-0.282v1.071zM27.212 29.222l-0.099 1.329 1.068 0.080 0.099-1.329-1.068-0.080z"></path>
</symbol>

<symbol id="icon-arrow1" viewBox="0 0 82 32">
<path d="M81.414 17.414c0.781-0.781 0.781-2.047 0-2.828l-12.728-12.728c-0.781-0.781-2.047-0.781-2.828 0s-0.781 2.047 0 2.828l11.314 11.314-11.314 11.314c-0.781 0.781-0.781 2.047 0 2.828s2.047 0.781 2.828 0l12.728-12.728zM0 18h80v-4h-80v4z"></path>
</symbol>
<symbol id="icon-arrow2" viewBox="0 0 102 32">
<path d="M101.414 17.414c0.781-0.781 0.781-2.047 0-2.828l-12.728-12.728c-0.781-0.781-2.047-0.781-2.828 0s-0.781 2.047 0 2.828l11.314 11.314-11.314 11.314c-0.781 0.781-0.781 2.047 0 2.828s2.047 0.781 2.828 0l12.728-12.728zM0 18h100v-4h-100v4z"></path>
</symbol>
<symbol id="icon-arrow3" viewBox="0 0 69 32">
<path d="M68.081 17.414c0.781-0.781 0.781-2.047 0-2.829l-12.728-12.728c-0.781-0.781-2.047-0.781-2.828 0s-0.781 2.047 0 2.828l11.314 11.314-11.314 11.314c-0.781 0.781-0.781 2.047 0 2.828s2.047 0.781 2.828 0l12.728-12.728zM0 18h66.667v-4h-66.667v4z"></path>
</symbol>
<symbol id="icon-close" viewBox="0 0 32 32">
<path d="M23.733 10.304l-1.504-1.504-5.963 5.963-5.963-5.963-1.504 1.504 5.963 5.963-5.963 5.963 1.504 1.504 5.963-5.963 5.963 5.963 1.504-1.504-5.963-5.963 5.963-5.963z"></path>
</symbol>
<symbol id="icon-open" viewBox="0 0 32 32">
<path d="M6.4 11.733v-2.133h19.2v2.133h-19.2zM6.4 17.067h19.2v-2.133h-19.2v2.133zM6.4 22.4h19.2v-2.133h-19.2v2.133z"></path>
</symbol>

<symbol id="icon-pointer" viewBox="0 0 22 32">
<path stroke-linejoin="round" stroke-linecap="round" stroke-miterlimit="4" stroke-width="6.4" d="M3.2 3.2l15.84 12.8-15.84 12.8"></path>
</symbol>

<symbol id="icon-up" viewBox="0 0 32 32">
<path d="M27.414 12.586l-10-10c-0.781-0.781-2.047-0.781-2.828 0l-10 10c-0.781 0.781-0.781 2.047 0 2.828s2.047 0.781 2.828 0l6.586-6.586v19.172c0 1.105 0.895 2 2 2s2-0.895 2-2v-19.172l6.586 6.586c0.39 0.39 0.902 0.586 1.414 0.586s1.024-0.195 1.414-0.586c0.781-0.781 0.781-2.047 0-2.828z"></path>
</symbol>

<symbol id="icon-ice-cream" viewBox="0 0 128 128">
<path d="M64.434.427c.32.861.963 5.01.963 6.293v.043a12.29 12.29 0 0 1-3.352 8.454l.006-.006c-1.795 1.927-3.591 2.997-7.901 4.739-4.793 1.956-6.777 3.133-9.024 5.355-2.276 2.276-3.616 4.764-4.096 7.687-.537 3.186 0 5.433 1.632 6.72l.828.64-1.312.832c-2.649 1.742-7.467 5.838-8.299 7.097-1.607 2.411-1.447 4.658.373 5.572l.857.427-.964.91c-1.447 1.365-1.742 2.304-1.529 4.764.135 1.636.082 2.521-.291 3.858-.455 1.742-.455 1.767.132 3.001.59 1.205 2.251 2.731 3.751 3.374.722.32.747.427.91 2.891.082 1.422.213 5.945.32 10.069.082 4.124.27 7.9.427 8.356.135.48.644 1.124 1.102 1.444 1.55 1.074 2.624 2.226 3.317 3.563.779 1.529 1.636 5.276 4.231 18.237l1.821 9.102 1.127 1.074c2.141 2.115 6.24 3.079 12.989 3.079 6.773 0 10.816-.939 12.96-3.054l1.152-1.095 1.657-8.437c3.666-18.45 3.989-19.467 6.855-21.742.882-.725 1.742-1.607 1.899-2.009.189-.455.377-3.965.508-9.266.107-4.711.27-9.373.377-10.365l.16-1.792 1.742-1.316c2.194-1.685 3.051-3.211 3.051-5.568-.025-2.784-1.849-5.838-5.166-8.569l-1.582-1.283.779-1.102c3.239-4.469 1.205-10.656-4.821-14.777l-1.82-1.259.668-.697c2.972-3.186 3.456-12.693.963-19.307-1.497-3.936-4.928-8.22-9.131-11.381C70.648 3.429 64.966.002 64.461.002c-.107 0-.107.189-.025.427zm7.708 9.351c1.422 1.394 3.132 3.293 3.805 4.256 3.989 5.571 5.006 12.562 2.596 17.703-.963 2.087-3.858 5.191-6.535 7.04-4.096 2.841-13.309 7.609-19.733 10.229-10.336 4.206-16.338 5.01-17.031 2.251-.27-1.045.508-1.874 3.804-4.071 2.969-2.034 16.306-11.943 16.544-12.345.082-.107-1.284.508-2.997 1.365-5.81 2.947-8.569 2.382-8.434-1.714.078-2.973 2.222-6.347 5.191-8.274.754-.48 3.083-1.554 5.227-2.411 7.04-2.837 9.184-4.285 11.566-7.843 1.422-2.116 2.972-6.027 3.079-7.687.028-.587.135-1.045.213-1.045.082 0 1.287 1.152 2.702 2.546zm7.311 30.421c1.956 1.095 3.989 2.973 4.871 4.444 1.557 2.649.754 5.301-2.596 8.675-3.641 3.698-9.852 7.232-16.683 9.479-6.293 2.062-12.316 3.026-20.942 3.321l-5.355.189 3.484.213c4.498.295 13.198.028 16.573-.508 8.971-1.422 16.605-4.26 22.066-8.167 1.234-.885 2.517-1.607 2.866-1.607.885 0 4.74 3.698 5.518 5.248.427.885.533 1.529.455 2.382-.402 3.563-4.743 5.465-15.211 6.72-12.8 1.529-29.536.028-36.686-3.264-3.378-1.554-3.936-2.439-3.079-4.793.267-.75.32-1.636.213-2.894-.135-1.66-.107-1.874.48-2.489 1.34-1.447 3.591-2.276 11.84-4.366 2.891-.747 6.827-1.927 8.7-2.624 4.551-1.66 13.095-5.973 17.056-8.622 3.723-2.464 4.26-2.571 6.428-1.337zM43.89 72.974c5.625 1.635 10.606 2.115 19.872 1.927 6.962-.132 11.246-.562 17.429-1.66 1.262-.213 2.357-.402 2.493-.402.295 0 .213 10.283-.107 12.989-.349 2.866-1.127 5.088-1.956 5.625-.857.562-5.141 1.152-10.873 1.472-11.755.64-23.833 0-27.581-1.501-2.034-.829-2.251-1.902-2.276-11.837 0-6.613.053-7.523.402-7.388.213.078 1.39.427 2.596.775zm6.346 22.763c1.927.238 4.018.48 4.658.562l1.156.135-1.02 1.124c-1.312 1.419-3.321 4.256-4.043 5.703-.828 1.66-1.099 1.767-2.329 1.099l-1.045-.59-.587-3.641a93.173 93.173 0 0 0-.864-4.868l.114.662c-.242-.693-.483-.693 3.961-.185zm28.548-.295c0 .053-.135.747-.27 1.529-.16.8-.829 5.166-1.497 9.717-1.365 9.508-2.275 13.977-3.108 15.477-1.152 2.009-3.911 3.186-8.38 3.563-1.742.135-6.99-.213-7.285-.484-.213-.238 4.391-5.945 5.117-6.318.668-.377.853-.32 3.129.853 2.653 1.397 3.993 1.611 3.993.725 0-.882-.697-1.742-2.411-2.915-1.579-1.127-2.141-1.771-2.141-2.521 0-.213.775-1.419 1.714-2.677.935-1.259 2.3-3.267 2.997-4.473l1.316-2.169 1.202.163c2.436.349 3.079.32 3.001-.213-.053-.27-.508-1.045-1.02-1.689-.508-.668-.91-1.341-.91-1.472 0-.508 2.489-5.195 3.296-6.187.697-.857 1.259-1.287 1.259-.91zm-16.736 2.14c1.337.885 6.371 5.252 6.692 5.785.135.242-5.031 8.327-6.051 9.479-.107.135-.669-.132-1.23-.562a80.837 80.837 0 0 0-4.319-3.007l-.339-.207-3.616-2.382 2.169-3.669c3.854-6.453 3.776-6.347 4.605-6.347.427 0 1.365.402 2.091.91zm10.147.964c-.939 1.152-1.714 1.877-2.034 1.877-.697 0-1.824-.615-3.723-2.009l-1.582-1.152 3.165-.189a63.75 63.75 0 0 0 3.918-.258l-.256.02c2.144-.349 2.144-.32.512 1.71zM51.95 111.427c2.464.963 6.642 3.239 7.847 4.26.857.693.857.747.508 1.603a26.398 26.398 0 0 1-1.722 2.962l.061-.097a43.734 43.734 0 0 0-1.669 2.729l-.127.243c-.853 1.66-1.123 1.796-2.891 1.316-1.902-.565-2.916-1.529-3.453-3.271-.725-2.436-1.877-9.316-1.742-10.389.053-.402 1.177-.16 3.186.644z"/>
</symbol>

<symbol id="icon-weight" viewBox="0 0 103 128">
<path d="M42.489 2.187C26.588 4.544 13.501 13.373 8.683 24.928c-1.536 3.651-1.949 5.895-1.949 10.293.029 3.25.146 4.455.651 6.208 1.031 3.449 1.771 5.205 3.307 7.68l1.422 2.297-1.6 1.956C-2.101 69.06-3.491 91.14 7.029 108.534c3.929 6.528 10.343 12.939 16.605 16.675l1.863 1.091 50.972-.43 1.209-.661c4.228-2.386 10.194-7.705 13.532-12.018 4.834-6.278 8.255-13.888 9.651-22.186l.041-.296c.473-2.962.473-11.733-.028-14.521-1.507-8.594-4.729-15.954-9.81-22.482-.974-1.237-1.742-2.272-1.742-2.357 0-.057.533-.949 1.152-1.956 1.447-2.3 2.748-5.262 3.456-7.847.796-2.877.796-10.062 0-12.939C91.093 18.403 82.584 9.891 70.559 5.204c-3.371-1.323-9.134-2.731-12.857-3.189-3.456-.402-11.996-.32-15.218.171zM60.48 6.873c15.78 3.075 27.335 12.736 29.461 24.64.473 2.674.178 7.218-.619 9.746-.8 2.471-2.275 5.376-4.018 7.847-.711 1.006-1.301 2.158-1.301 2.532s.619 1.351 1.507 2.329c7.385 8.192 11.285 18.457 11.285 29.554-.028 12.622-4.875 23.691-14.212 32.373-1.597 1.493-3.872 3.364-5.085 4.167l-2.215 1.493-48.843.203-1.892-1.209c-6.855-4.451-13.031-11.811-16.459-19.634-4.313-9.888-4.757-21.362-1.241-31.651 1.863-5.347 4.345-9.717 8.124-14.318 1.54-1.842 2.247-2.933 2.247-3.449 0-.434-.768-1.842-1.774-3.307-3.545-5.148-4.992-10.869-4.135-16.274.889-5.461 3.367-9.948 7.947-14.404 5.973-5.778 14.304-9.6 24.085-11.04 4.046-.604 12.999-.373 17.138.402z"/>
<path d="M43.815 11.932c-12.114 1.984-21.6 8.711-24.701 17.54-.711 1.984-.829 2.759-.829 5.607 0 2.844.117 3.62.828 5.603.441 1.266 1.269 3.022 1.831 3.911 1.536 2.471 2.215 2.56 5.262.718 4.376-2.696 9.472-4.758 14.907-5.898l.311-.054c3.662-.747 10.695-1.031 14.684-.572 6.233.718 12.999 2.958 18.407 6.151 1.536.889 3.104 1.636 3.484 1.636 2.247 0 5.113-6.468 5.113-11.495 0-11.186-10.695-20.761-25.852-23.147-3.221-.515-10.347-.515-13.447 0zm14.628 4.601c5.084 1.091 9.749 3.165 13.269 5.895 4.729 3.651 7.267 8.739 6.852 13.653-.146 1.956-.885 4.601-1.326 4.889-.121.057-1.778-.633-3.666-1.554-3.704-1.814-8.017-3.328-12.525-4.323l-.389-.072c-2.748-.572-3.901-.661-10.044-.633-6.059 0-7.328.089-9.956.633-4.551.978-8.099 2.187-12.473 4.256-4.402 2.098-4.167 2.126-4.963-.462-1.031-3.36-.384-7.819 1.625-11.182 1.067-1.781 3.989-4.743 6.116-6.208 4.05-2.791 7.595-4.053 15.218-5.436 1.565-.284 10.254.117 12.263.547zm-4.814 37.085c-.828 1.038-.828 2.016.029 2.848.562.547 1.123.69 3.164.836 4.137.299 7.933 1.52 11.26 3.459l-.124-.067c2.425 1.437 6.115 4.917 7.772 7.417 2.453 3.591 4.135 8.739 4.135 12.537 0 1.323.121 1.725.74 2.297.946.949 2.187.949 3.104 0 .651-.661.675-.832.501-3.648-.829-13.916-12.736-25.529-26.976-26.311l-2.958-.171-.647.807z"/>
</symbol>

<symbol id="icon-cow" viewBox="0 0 128 128">
<path d="M24.675.768c-1.049.903-4.032 7.125-5.102 10.524-1.273 4.206-1.707 7.36-1.536 11.719.231 6.222 1.796 10.944 5.241 15.872.899 1.294 1.625 2.404 1.625 2.496 0 .06-.551.121-1.244.121-2.987 0-8.576.992-12.861 2.283C3.996 45.831 0 49.404 0 53.404c0 1.415 1.273 3.819 2.635 5.049 2.635 2.379 8.398 4.633 14.595 5.714 2.144.391 8.515 1.052 9.934 1.081.259 0 .349 1.387.349 5.924 0 3.907.142 6.944.434 8.807 1.042 6.674 4.284 13.735 8.569 18.727l1.479 1.714-.985 1.593c-1.447 2.254-1.998 3.968-2.169 6.521-.437 6.133 3.385 11.573 10.773 15.392 14.069 7.303 35.936 4.448 44.132-5.771 3.996-4.992 4.459-10.702 1.301-15.872l-.985-1.593 1.767-2.133c3.303-3.968 5.444-7.936 7.065-12.957 1.362-4.267 1.885-8.388 1.885-14.912 0-2.972.085-5.44.231-5.44 1.333-.028 7.733-.722 9.76-1.081 6.226-1.081 11.876-3.307 14.596-5.71 1.362-1.234 2.635-3.637 2.635-5.049 0-4.452-4.516-8.057-12.917-10.222-2.749-.722-7.933-1.593-10.453-1.742l-1.188-.093 1.305-1.803c1.621-2.194 3.648-6.464 4.43-9.259 2.201-8.085.839-17.493-3.879-26.482-1.973-3.73-3.335-4.601-4.924-3.132-.608.576-.871 1.355-1.447 4.181-1.796 8.989-5.127 16.11-9.991 21.369l-2.144 2.347H40.98l-1.913-2.073c-4.747-5.23-8.195-12.622-9.991-21.643-.579-2.827-.839-3.605-1.447-4.178-.956-.871-1.884-.843-2.951.089zm3.702 17.828a48.05 48.05 0 0 0 5.703 9.437l1.795 2.315-1.881 1.412c-1.767 1.351-3.417 3.278-4.693 5.476l-.547.989-1.39-1.895c-4.75-6.549-5.938-14.578-3.417-22.905 1.216-4.025 1.188-3.997 2.286-.508.523 1.682 1.508 4.238 2.144 5.682zm75.378-6.344c1.049 2.913 1.655 6.275 1.655 9.778l-.002.371v-.019c0 5.468-1.447 10.098-4.487 14.247l-1.362 1.863-1.013-1.714a18.164 18.164 0 0 0-5.017-5.524l-.053-.036c-.782-.509-1.387-1.02-1.387-1.081 0-.089.547-.782 1.245-1.532 3.214-3.577 6.659-10.009 8.37-15.541.519-1.714 1.042-3.129 1.127-3.129.089 0 .523 1.056.924 2.318zM88.96 34.226c3.214 1.351 6.283 5.227 6.777 8.505.26 1.803.868 2.947 1.65 3.129.349.057 2.752.267 5.33.448 9.148.605 16.359 2.556 19.431 5.23 1.419 1.262 1.273 2.315-.434 3.609-3.417 2.585-10.802 4.537-18.332 4.871-4.981.21-6.023.355-6.692 1.049-.491.512-.547 1.053-.547 6.492 0 7.367-.377 11.605-1.305 15.029-1.301 4.658-3.879 9.621-6.891 13.138l-1.245 1.444-2.578-1.536c-2.749-1.704-5.941-3.04-9.341-3.833l-.216-.043c-10.976-2.617-23.111-1.024-31.275 4.117l-1.885 1.202-1.188-1.412c-1.621-1.895-4.171-5.952-5.184-8.235-2.229-5.173-2.894-9.379-2.894-18.638 0-8.989.462-8.327-6.197-8.686-8.515-.452-15.005-1.984-19.086-4.569-3.011-1.923-2.517-3.637 1.682-5.653 4.025-1.956 9.554-3.125 17.23-3.605 5.966-.391 6.108-.483 6.659-3.367.811-4.359 4.025-7.965 8.082-9.109 1.013-.299 6.688-.359 24.064-.331l22.734.06 1.65.693zM72.683 96.448c7.097 1.742 12.395 4.989 14.684 9.017.551.931.782 1.895.896 3.367.117 1.831.032 2.283-.665 3.787-3.214 6.827-15.029 11.332-27.047 10.311-14.45-1.202-23.95-9.259-20.213-17.163 2.027-4.27 8.889-8.356 16.128-9.561 1.188-.178 2.375-.391 2.606-.451.235-.061 2.841-.061 5.795 0 4.021.093 5.963.27 7.815.693z"/>
<path d="M43.961 49.283c-1.795.605-3.011 1.387-4.633 3.008-1.422 1.351-1.536 2.944-.349 3.907 1.102.9 2.144.782 3.474-.391 1.682-1.472 2.987-2.073 4.608-2.073 1.621-.032 2.866.541 4.601 2.073 1.333 1.173 2.375 1.291 3.477.391.58-.48.754-.871.754-1.778 0-.928-.203-1.351-1.22-2.371-2.866-2.883-7.122-3.996-10.713-2.766zm33.764-.031c-1.849.693-4.228 2.258-5.18 3.428-.928 1.145-.96 2.435 0 3.399.953 1.02 2.112.96 3.502-.181 3.417-2.827 5.966-2.916 9.124-.302.811.693 1.735 1.234 2.027 1.234 1.419 0 2.578-1.262 2.578-2.766 0-.96-2.403-3.186-4.576-4.238-2.403-1.173-5.269-1.383-7.47-.569zM48.16 104.896c-.839.811-1.131 1.984-.697 2.915.32.75.811 1.052 2.809 1.593.9.238 1.276.54 1.593 1.291.405.996.437.996 2.667 1.085l2.229.089v-.843c-.029-1.202-.697-2.944-1.565-4.146-1.013-1.387-2.781-2.286-4.779-2.468-1.362-.121-1.707-.061-2.258.484zm27.655-.213c-1.447.391-3.531 2.347-4.11 3.876a10.047 10.047 0 0 0-.549 2.707l-.002.031c-.057 1.291.057 1.593.754 2.222 1.707 1.504 3.968.331 3.968-2.073 0-1.173.868-1.984 2.403-2.286 1.621-.299 2.201-.96 2.229-2.493 0-2.016-1.796-2.795-4.693-1.984z"/>
</symbol>

<symbol id="icon-facebook" viewBox="0 0 14 32">
<path d="M13.513 15.879h-4.176v15.393h-6.327v-15.393h-3.009v-5.41h3.009v-3.501c0-2.503 1.182-6.424 6.384-6.424l4.687 0.020v5.251h-3.401c-0.558 0-1.342 0.28-1.342 1.475v3.184h4.729l-0.553 5.405z"></path>
</symbol>
<symbol id="icon-telegram" viewBox="0 0 40 32">
<path d="M16.205 20.638l-0.635 8.341c0.909 0 1.302-0.364 1.774-0.802l4.261-3.801 8.829 6.036c1.619 0.843 2.76 0.399 3.197-1.391l5.797-25.352c0.514-2.235-0.866-3.108-2.443-2.56l-34.065 12.175c-2.325 0.842-2.29 2.052-0.395 2.601l8.709 2.529 20.229-11.817c0.952-0.589 1.818-0.263 1.106 0.326l-16.364 13.717z"></path>
</symbol>
<symbol id="icon-github" viewBox="0 0 32 32">
<path d="M15.999 0.847c-8.271 0-15.059 6.789-15.059 15.062 0 7.060 4.953 13.473 11.529 15.062v-4.983c-0.652 0.143-1.251 0.147-1.915-0.049-0.89-0.263-1.613-0.856-2.15-1.76-0.342-0.577-0.949-1.203-1.581-1.157l-0.155-1.758c1.368-0.117 2.551 0.834 3.254 2.014 0.312 0.525 0.671 0.833 1.132 0.969 0.446 0.131 0.924 0.068 1.481-0.129 0.14-1.116 0.651-1.534 1.037-2.123v-0.001c-3.922-0.585-5.486-2.667-6.106-4.309-0.822-2.181-0.381-4.907 1.073-6.629 0.028-0.034 0.079-0.121 0.059-0.183-0.667-2.014 0.146-3.68 0.176-3.857 0.769 0.228 0.894-0.229 3.342 1.258l0.423 0.254c0.177 0.105 0.121 0.045 0.298 0.032 1.022-0.278 2.099-0.431 3.16-0.445 1.069 0.014 2.14 0.167 3.204 0.456l0.137 0.014c-0.012-0.002 0.037-0.009 0.12-0.058 3.057-1.852 2.947-1.247 3.767-1.513 0.030 0.177 0.831 1.87 0.172 3.859-0.089 0.274 2.651 2.783 1.132 6.811-0.62 1.644-2.183 3.725-6.106 4.31v0.001c0.503 0.767 1.107 1.174 1.104 2.756v6.22c6.577-1.589 11.529-8.003 11.529-15.062 0-8.273-6.788-15.062-15.059-15.062v0z"></path>
</symbol>
<symbol id="icon-cross" viewBox="0 0 32 32">
<path d="M17.253 16l7.369-7.369c0.146-0.17 0.222-0.389 0.213-0.613s-0.101-0.436-0.26-0.594c-0.158-0.158-0.37-0.251-0.594-0.26s-0.442 0.067-0.612 0.213l-7.369 7.369-7.369-7.378c-0.167-0.167-0.394-0.261-0.631-0.261s-0.464 0.094-0.631 0.261c-0.167 0.167-0.261 0.394-0.261 0.631s0.094 0.464 0.261 0.631l7.378 7.369-7.378 7.369c-0.093 0.080-0.169 0.178-0.222 0.288s-0.083 0.23-0.088 0.353c-0.005 0.123 0.016 0.245 0.061 0.359s0.112 0.218 0.199 0.304c0.087 0.087 0.19 0.154 0.304 0.199s0.236 0.065 0.359 0.060c0.122-0.005 0.243-0.035 0.353-0.088s0.208-0.129 0.288-0.222l7.378-7.369 7.369 7.369c0.17 0.146 0.389 0.222 0.612 0.213s0.436-0.101 0.594-0.26c0.158-0.158 0.251-0.37 0.26-0.594s-0.067-0.442-0.213-0.612l-7.369-7.369z"></path>
</symbol>
</defs>
</svg>
